        <mxCell id="nGbhJUHsJuaCeIzr4p0f-4" style="edgeStyle=orthogonalEdgeStyle;rounded=0;orthogonalLoop=1;jettySize=auto;html=1;exitX=0.5;exitY=1;exitDx=0;exitDy=0;" edge="1" parent="1" source="nGbhJUHsJuaCeIzr4p0f-1" target="nGbhJUHsJuaCeIzr4p0f-3">
          <mxGeometry relative="1" as="geometry" />
